<?xml version="1.0" encoding="utf-8"?>
<!-- Generator: Adobe Illustrator 15.0.0, SVG Export Plug-In . SVG Version: 6.00 Build 0)  -->
<!DOCTYPE svg PUBLIC "-//W3C//DTD SVG 1.1//EN" "http://www.w3.org/Graphics/SVG/1.1/DTD/svg11.dtd">
<svg version="1.1" id="Layer_1" xmlns="http://www.w3.org/2000/svg" xmlns:xlink="http://www.w3.org/1999/xlink" x="0px" y="0px"
	 width="125.644px" height="127.688px" viewBox="0 0 125.644 127.688" enable-background="new 0 0 125.644 127.688"
	 xml:space="preserve">
<g>
	<g>
		<g>
			<g>
				
					<linearGradient id="SVGID_1_" gradientUnits="userSpaceOnUse" x1="51.1074" y1="118.874" x2="99.1629" y2="32.1797" gradientTransform="matrix(1 0.0019 -0.0019 1 -0.1455 -1.8604)">
					<stop  offset="0.2606" style="stop-color:#507B99"/>
					<stop  offset="0.3305" style="stop-color:#466C87"/>
					<stop  offset="0.4" style="stop-color:#3F6179"/>
					<stop  offset="0.4788" style="stop-color:#406784"/>
					<stop  offset="0.903" style="stop-color:#3A596E"/>
					<stop  offset="1" style="stop-color:#3A596E"/>
				</linearGradient>
				<path fill="url(#SVGID_1_)" d="M87.082,26.447c0,0,1.164-1.512,4.289-0.116c6.361,2.855,7.157,10.25,7.157,10.25l-0.083,43.152
					c0.828,14.753-1.495,22.596-20.537,23.779l-40.429,5.604c-10.042-2.752-9.983-10.67-9.983-10.67l48.029-6.593
					c7.105-0.983,11.493-7.783,11.651-14.026L87.082,26.447z"/>
			</g>
		</g>
		<g>
			<g>
				
					<linearGradient id="SVGID_2_" gradientUnits="userSpaceOnUse" x1="-4.7495" y1="113.9072" x2="70.6166" y2="-11.523" gradientTransform="matrix(1 0.0019 -0.0019 1 -0.1455 -1.8604)">
					<stop  offset="0.1455" style="stop-color:#3B5A70"/>
					<stop  offset="0.3818" style="stop-color:#3A596E"/>
					<stop  offset="0.5758" style="stop-color:#3D5E75"/>
					<stop  offset="0.602" style="stop-color:#436780"/>
					<stop  offset="0.6485" style="stop-color:#4B738F"/>
					<stop  offset="0.7818" style="stop-color:#507B99"/>
					<stop  offset="0.8788" style="stop-color:#507B99"/>
					<stop  offset="1" style="stop-color:#466C86"/>
				</linearGradient>
				<path fill="url(#SVGID_2_)" d="M67.526,10.574l-39.436,5.579c-7.112,0.99-16.138,10.936-16.163,18.632l-1.061,51.671
					l-0.09,23.553c0,0,0.94,12.539,9.929,16.649l3.266,1.03c-8.585-1.854-14.685-7.511-15.876-8.606
					C3.982,115.284-0.033,111.48,0,103.55l0.268-71.164c0.046-11.312,8.55-21.625,19.011-23.074L85.25,0.17
					c2.435-0.338,4.756-0.163,6.891,0.438c0,0,2.787,0.908,3.795,1.497c1.015,0.592,8.557,5.507,8.557,5.507
					s-5.517-1.394-9.323-0.867C91.366,7.271,67.526,10.574,67.526,10.574z"/>
			</g>
		</g>
		<g>
			<g>
				
					<linearGradient id="SVGID_3_" gradientUnits="userSpaceOnUse" x1="535.3057" y1="118.5615" x2="582.825" y2="32.8344" gradientTransform="matrix(1 0.0019 -0.0019 1 -483.4614 -2.7954)">
					<stop  offset="0.2606" style="stop-color:#507B99"/>
					<stop  offset="0.3305" style="stop-color:#466C87"/>
					<stop  offset="0.4" style="stop-color:#3F6179"/>
					<stop  offset="0.4788" style="stop-color:#406784"/>
					<stop  offset="0.903" style="stop-color:#3A596E"/>
					<stop  offset="1" style="stop-color:#3A596E"/>
				</linearGradient>
				<path fill="url(#SVGID_3_)" d="M98.481,59.969l0.047-23.387c0,0-0.643-6.863-7.004-9.715c-3.121-1.399-4.442-1.133-4.442-1.133
					l0.07,38.124C90.25,62.323,94.29,60.836,98.481,59.969z"/>
				
					<linearGradient id="SVGID_4_" gradientUnits="userSpaceOnUse" x1="532.3711" y1="117.7529" x2="580.4241" y2="31.063" gradientTransform="matrix(1 0.0019 -0.0019 1 -483.4614 -2.7954)">
					<stop  offset="0.2606" style="stop-color:#507B99"/>
					<stop  offset="0.3305" style="stop-color:#466C87"/>
					<stop  offset="0.4" style="stop-color:#3F6179"/>
					<stop  offset="0.4788" style="stop-color:#406784"/>
					<stop  offset="0.903" style="stop-color:#3A596E"/>
					<stop  offset="1" style="stop-color:#3A596E"/>
				</linearGradient>
				<path fill="url(#SVGID_4_)" d="M82.947,99.411c-1.96-0.989-3.951-1.944-6.06-2.749c-1.848-0.701-3.531-2.495-3.926-4.455
					l-45.465,6.239c0,0-0.06,7.918,9.983,10.67l40.429-5.604c3.84-0.241,6.939-0.776,9.527-1.565
					c-1.269-0.563-2.5-1.215-3.622-2.017C83.596,99.777,83.272,99.596,82.947,99.411z"/>
			</g>
		</g>
		<g>
			<g>
				
					<linearGradient id="SVGID_5_" gradientUnits="userSpaceOnUse" x1="12.0884" y1="31.9009" x2="114.1343" y2="106.0416" gradientTransform="matrix(1 0.0019 -0.0019 1 -0.1455 -1.8604)">
					<stop  offset="0.0364" style="stop-color:#B3D9FF"/>
					<stop  offset="0.2788" style="stop-color:#83B8F4"/>
					<stop  offset="0.6506" style="stop-color:#679CD2"/>
					<stop  offset="1" style="stop-color:#5186B6"/>
				</linearGradient>
				<path fill="url(#SVGID_5_)" d="M96.028,6.629c10.461-1.449,18.914,6.512,18.874,17.818l-0.27,71.172
					c-0.042,11.306-8.572,21.622-19.032,23.071l-65.969,9.139c-10.462,1.453-18.898-6.515-18.854-17.82l0.269-71.167
					c0.042-11.306,8.543-21.625,19.003-23.071L96.028,6.629z M98.033,86.519l0.185-48.359c0.033-7.696-5.714-13.1-12.823-12.113
					l-44.844,6.211c-7.107,0.989-12.908,7.987-12.933,15.683l-0.186,48.361c-0.024,7.692,5.723,13.097,12.828,12.113l44.841-6.211
					C92.213,101.214,98.008,94.217,98.033,86.519"/>
			</g>
		</g>
	</g>
	<linearGradient id="SVGID_6_" gradientUnits="userSpaceOnUse" x1="73.4814" y1="111.8022" x2="107.6029" y2="35.6691">
		<stop  offset="0.2067" style="stop-color:#231F20"/>
		<stop  offset="1" style="stop-color:#231F20;stop-opacity:0"/>
	</linearGradient>
	<path opacity="0.25" fill="url(#SVGID_6_)" d="M113.781,41.772l-28.396,2.965l8.494,12.661c-2.05,2.526-4.571,6.155-7.253,9.396
		c-5.052,6.099-10.234,10.354-16.727,13.243c0.132,0.316,3.255,4.956,4.803,7.617c3.445,5.931-16.008,5.667-23.336,7.518
		c2.06,2.292,8.787,4.211,10.272,4.48c0.652,0.172,1.302,0.31,1.953,0.447c4.104,0.89,8.178,1.165,12.146,0.88
		c2.49-0.179,4.941-0.561,7.331-1.161c1.562-0.392,3.103-0.874,4.616-1.44c0.324-0.119,0.642-0.26,0.964-0.389
		c0.426-0.169,0.854-0.331,1.276-0.517c0.369-0.159,0.73-0.338,1.096-0.51c0.351-0.163,0.704-0.316,1.052-0.488
		c0.021-0.013,0.039-0.022,0.06-0.035c0.432-0.216,0.857-0.45,1.283-0.682c0.309-0.166,0.62-0.323,0.927-0.495
		c0.389-0.223,0.769-0.46,1.152-0.692c0.332-0.203,0.669-0.395,0.997-0.604c0.446-0.285,0.885-0.592,1.323-0.893
		c0.253-0.176,0.513-0.338,0.764-0.517c0.69-0.495,1.371-1.005,2.041-1.534c3.006-2.379,6.205-5.914,9.122-9.671l4.941,4.492
		C113.851,71.638,113.938,56.008,113.781,41.772z"/>
	<g>
		<g>
			
				<linearGradient id="SVGID_7_" gradientUnits="userSpaceOnUse" x1="-4248.084" y1="-2020.3569" x2="-4274.8086" y2="-2018.7371" gradientTransform="matrix(0.4467 0.8947 -0.8947 0.4467 217.4224 4799.3193)">
				<stop  offset="0" style="stop-color:#FFFFFF"/>
				<stop  offset="0.0043" style="stop-color:#FFFDF8"/>
				<stop  offset="0.0529" style="stop-color:#FFEBAE"/>
				<stop  offset="0.0985" style="stop-color:#FFDB70"/>
				<stop  offset="0.1397" style="stop-color:#FFCF40"/>
				<stop  offset="0.1758" style="stop-color:#FFC61D"/>
				<stop  offset="0.2054" style="stop-color:#FFC108"/>
				<stop  offset="0.2247" style="stop-color:#FFBF00"/>
				<stop  offset="0.3048" style="stop-color:#FFA300"/>
				<stop  offset="0.3992" style="stop-color:#FF8900"/>
				<stop  offset="0.4551" style="stop-color:#FF7F00"/>
				<stop  offset="0.5163" style="stop-color:#F57900"/>
				<stop  offset="0.6206" style="stop-color:#DA6800"/>
				<stop  offset="0.7543" style="stop-color:#AF4E00"/>
				<stop  offset="0.7978" style="stop-color:#9F4400"/>
			</linearGradient>
			<polygon fill="url(#SVGID_7_)" points="125.644,82.639 108.651,73.269 104.328,66.434 114.983,66.434 			"/>
			
				<linearGradient id="SVGID_8_" gradientUnits="userSpaceOnUse" x1="-4353.3076" y1="-2010.9341" x2="-4302.1768" y2="-2014.6301" gradientTransform="matrix(0.4467 0.8947 -0.8947 0.4467 217.4224 4799.3193)">
				<stop  offset="0" style="stop-color:#FFFFFF"/>
				<stop  offset="0.0043" style="stop-color:#FFFDF8"/>
				<stop  offset="0.0529" style="stop-color:#FFEBAE"/>
				<stop  offset="0.0985" style="stop-color:#FFDB70"/>
				<stop  offset="0.1397" style="stop-color:#FFCF40"/>
				<stop  offset="0.1758" style="stop-color:#FFC61D"/>
				<stop  offset="0.2054" style="stop-color:#FFC108"/>
				<stop  offset="0.2247" style="stop-color:#FFBF00"/>
				<stop  offset="0.3048" style="stop-color:#FFA300"/>
				<stop  offset="0.3992" style="stop-color:#FF8900"/>
				<stop  offset="0.4551" style="stop-color:#FF7F00"/>
				<stop  offset="0.5163" style="stop-color:#F57900"/>
				<stop  offset="0.6206" style="stop-color:#DA6800"/>
				<stop  offset="0.7543" style="stop-color:#AF4E00"/>
				<stop  offset="0.7978" style="stop-color:#9F4400"/>
				<stop  offset="1" style="stop-color:#612400"/>
			</linearGradient>
			<polygon fill="url(#SVGID_8_)" points="103.721,51.137 93.879,49.916 85.385,37.251 95.307,37.94 			"/>
			
				<linearGradient id="SVGID_9_" gradientUnits="userSpaceOnUse" x1="-4307.0806" y1="-2053.4194" x2="-4314.52" y2="-2013.1918" gradientTransform="matrix(0.4467 0.8947 -0.8947 0.4467 217.4224 4799.3193)">
				<stop  offset="0.3818" style="stop-color:#FECF7C"/>
				<stop  offset="0.7978" style="stop-color:#FF7F00"/>
			</linearGradient>
			<polygon fill="url(#SVGID_9_)" points="95.307,37.94 85.385,37.251 115.843,34.074 125.489,34.28 			"/>
			
				<linearGradient id="SVGID_10_" gradientUnits="userSpaceOnUse" x1="-4294.6494" y1="-1967.188" x2="-4299.041" y2="-2030.1299" gradientTransform="matrix(0.4467 0.8947 -0.8947 0.4467 217.4224 4799.3193)">
				<stop  offset="0" style="stop-color:#FFFFFF"/>
				<stop  offset="0.0043" style="stop-color:#FFFDF8"/>
				<stop  offset="0.0529" style="stop-color:#FFEBAE"/>
				<stop  offset="0.0985" style="stop-color:#FFDB70"/>
				<stop  offset="0.1397" style="stop-color:#FFCF40"/>
				<stop  offset="0.1758" style="stop-color:#FFC61D"/>
				<stop  offset="0.2054" style="stop-color:#FFC108"/>
				<stop  offset="0.2247" style="stop-color:#FFBF00"/>
				<stop  offset="0.3048" style="stop-color:#FFA300"/>
				<stop  offset="0.3992" style="stop-color:#FF8900"/>
				<stop  offset="0.4551" style="stop-color:#FF7F00"/>
				<stop  offset="0.5163" style="stop-color:#F57900"/>
				<stop  offset="0.6206" style="stop-color:#DA6800"/>
				<stop  offset="0.7543" style="stop-color:#AF4E00"/>
				<stop  offset="0.7978" style="stop-color:#9F4400"/>
				<stop  offset="1" style="stop-color:#612400"/>
			</linearGradient>
			<path fill="url(#SVGID_10_)" d="M53.87,76.181c-0.836-0.272-1.67-0.651-2.504-1.077c2.167,0.354,4.351,0.491,6.528,0.395
				c2.829-0.035,5.666-0.558,8.464-1.528c8.224-2.849,14.327-7.488,20.268-14.662c2.682-3.237,5.203-6.869,7.253-9.392l9.842,1.221
				c-2.053,2.699-4.584,5.93-7.533,9.17c-3.054,3.356-6.592,6.759-10.548,9.621c-4.146,2.996-8.801,5.429-13.902,6.6
				C65.413,77.978,59.608,78.034,53.87,76.181z"/>
			
				<linearGradient id="SVGID_11_" gradientUnits="userSpaceOnUse" x1="-4371.6211" y1="-1954.1675" x2="-4279.9795" y2="-1954.1675" gradientTransform="matrix(0.4467 0.8947 -0.8947 0.4467 217.4224 4799.3188)">
				<stop  offset="0" style="stop-color:#FFFFFF"/>
				<stop  offset="0.0043" style="stop-color:#FFFDF8"/>
				<stop  offset="0.0529" style="stop-color:#FFEBAE"/>
				<stop  offset="0.0985" style="stop-color:#FFDB70"/>
				<stop  offset="0.1397" style="stop-color:#FFCF40"/>
				<stop  offset="0.1758" style="stop-color:#FFC61D"/>
				<stop  offset="0.2054" style="stop-color:#FFC108"/>
				<stop  offset="0.2247" style="stop-color:#FFBF00"/>
				<stop  offset="0.3048" style="stop-color:#FFA300"/>
				<stop  offset="0.3992" style="stop-color:#FF8900"/>
				<stop  offset="0.4551" style="stop-color:#FF7F00"/>
				<stop  offset="0.5046" style="stop-color:#F67500"/>
				<stop  offset="0.5889" style="stop-color:#DE5A00"/>
				<stop  offset="0.697" style="stop-color:#B82F00"/>
				<stop  offset="0.7978" style="stop-color:#8F0000"/>
				<stop  offset="1" style="stop-color:#000000"/>
			</linearGradient>
			<path fill="url(#SVGID_11_)" d="M50.025,86.215c-1.218-0.729-3.555-1.009-4.754-1.863c-1.218-0.867-2.427-1.797-3.618-2.789
				c-1.209-1.009-2.404-2.082-3.585-3.225c-3.679-3.566-7.028-7.624-10.01-12.102c-0.071-0.106-0.134-0.222-0.204-0.331
				c0.053,0.857,0.094,1.712,0.114,2.57c4.853,6.991,10.266,12.589,15.237,16.052c9.817,6.841,20.103,7.896,20.103,7.896
				C62.098,91.818,51.227,86.938,50.025,86.215z"/>
			
				<radialGradient id="SVGID_12_" cx="-4290.042" cy="-2068.022" r="89.181" gradientTransform="matrix(0.4467 0.8947 -0.8947 0.4467 217.4224 4799.3188)" gradientUnits="userSpaceOnUse">
				<stop  offset="0.3212" style="stop-color:#F1C703"/>
				<stop  offset="0.573" style="stop-color:#F1A603"/>
				<stop  offset="1" style="stop-color:#DD6D19"/>
			</radialGradient>
			<path fill="url(#SVGID_12_)" d="M125.489,34.28l-30.183,3.66l8.414,13.196c-2.525,3.319-5.78,7.452-9.651,11.418
				c-4.056,4.161-8.854,8.203-14.284,10.989c-5.794,2.972-12.401,4.562-19.726,3.312c-1.713-0.294-3.472-0.748-5.275-1.374
				c-9.202-1.822-17-4.443-24.115-10.238c-1.105-0.522-2.093-1.174-2.996-1.916c0.065,0.858,0.127,1.719,0.182,2.577
				c0.07,0.109,0.133,0.225,0.204,0.331c2.981,4.478,6.331,8.535,10.01,12.102c7.468,7.231,15.542,11.712,23.55,13.825
				c7.353,1.941,14.636,1.882,21.451,0.169c6.293-1.581,12.232-4.587,17.55-8.794c4.982-3.942,10.514-11.052,14.364-17.104
				l10.66,16.205L125.489,34.28z"/>
			<g>
				
					<linearGradient id="SVGID_13_" gradientUnits="userSpaceOnUse" x1="-4321.2881" y1="-1938.3184" x2="-4279.0337" y2="-2032.5983" gradientTransform="matrix(0.4467 0.8947 -0.8947 0.4467 217.4224 4799.3188)">
					<stop  offset="0.3818" style="stop-color:#FECF7C"/>
					<stop  offset="0.7978" style="stop-color:#FF7F00"/>
				</linearGradient>
				<path fill="url(#SVGID_13_)" d="M125.487,34.28l-30.181,3.66l0.198,0.338l0.01,0.016l8.206,12.842
					c-2.525,3.319-5.781,7.452-9.651,11.421c-4.058,4.155-8.854,8.2-14.284,10.986c-0.14,0.069-0.273,0.138-0.411,0.207
					c-5.69,2.836-12.164,4.326-19.314,3.103c-1.713-0.291-3.471-0.745-5.273-1.371c-0.486-0.028-1.282-0.313-1.767-0.363
					c2.234,0.873,4.77,1.75,6.972,2.129c6.692,1.14,13.411,0.016,19.97-3.351c4.776-2.451,9.618-6.174,14.39-11.064
					c3.899-3.998,7.223-8.221,9.685-11.458l0.158-0.21l-0.133-0.232l-8.149-12.746l29.077-3.372l0.451,46.7L115.323,66.23
					l-0.329-0.554l-0.346,0.544c-3.79,5.958-9.269,13.047-14.274,17.007c-5.348,4.229-11.204,7.163-17.401,8.72
					c-7.006,1.76-14.159,1.703-21.254-0.169c-4.053-1.071-8.05-2.733-11.88-4.953c-4.017-2.323-7.884-5.275-11.495-8.772
					c-3.633-3.522-6.983-7.57-9.955-12.038c-0.2-0.301-0.39-0.614-0.587-0.917c0.019,0.269,0.034,0.539,0.052,0.808
					c0.07,0.109,0.133,0.225,0.204,0.331c2.981,4.478,6.331,8.535,10.009,12.102c7.468,7.231,15.541,11.709,23.548,13.825
					c7.352,1.938,14.639,1.882,21.453,0.172c3.096-0.779,6.107-1.903,9.004-3.347c2.986-1.487,5.845-3.312,8.546-5.45
					c4.983-3.942,10.515-11.052,14.365-17.104l10.349,15.683l0.108,0.182l0.203,0.341L125.487,34.28z"/>
			</g>
		</g>
	</g>
</g>
</svg>
